<svg width="122" height="56" viewBox="0 0 122 56" fill="none" xmlns="http://www.w3.org/2000/svg">
<rect x="1" y="6" width="121" height="48" fill="white"/>
<path d="M4.16 39C4 39 3.86667 38.9467 3.76 38.84C3.65333 38.7333 3.6 38.6 3.6 38.44V16.92C3.6 16.76 3.65333 16.6267 3.76 16.52C3.86667 16.4133 4 16.36 4.16 16.36H6.16C6.32 16.36 6.45333 16.4133 6.56 16.52C6.66667 16.6267 6.72 16.76 6.72 16.92V19.08C7.36 18.0133 8.2 17.2133 9.24 16.68C10.3067 16.12 11.48 15.84 12.76 15.84C14.44 15.84 15.8933 16.24 17.12 17.04C18.3733 17.8133 19.2667 18.88 19.8 20.24C20.36 18.8267 21.2267 17.7467 22.4 17C23.5733 16.2533 24.9067 15.88 26.4 15.88C28.6667 15.88 30.4933 16.5733 31.88 17.96C33.2933 19.3467 34 21.1733 34 23.44V38.44C34 38.6 33.9467 38.7333 33.84 38.84C33.7333 38.9467 33.6 39 33.44 39H31.44C31.28 39 31.1467 38.9467 31.04 38.84C30.9333 38.7333 30.88 38.6 30.88 38.44V24.04C30.88 22.3333 30.4267 21.04 29.52 20.16C28.64 19.2533 27.44 18.8 25.92 18.8C24.2667 18.8 22.92 19.3867 21.88 20.56C20.8667 21.7333 20.36 23.3467 20.36 25.4V38.44C20.36 38.6 20.3067 38.7333 20.2 38.84C20.0933 38.9467 19.96 39 19.8 39H17.8C17.64 39 17.5067 38.9467 17.4 38.84C17.2933 38.7333 17.24 38.6 17.24 38.44V24C17.24 22.2933 16.7867 21 15.88 20.12C15 19.2133 13.8 18.76 12.28 18.76C10.6267 18.76 9.28 19.3467 8.24 20.52C7.22667 21.6933 6.72 23.3067 6.72 25.36V38.44C6.72 38.6 6.66667 38.7333 6.56 38.84C6.45333 38.9467 6.32 39 6.16 39H4.16ZM45.9922 39.52C43.9389 39.52 42.2589 38.9467 40.9522 37.8C39.6455 36.6267 38.9922 35.0933 38.9922 33.2C38.9922 31.44 39.5789 29.9867 40.7522 28.84C41.9522 27.6933 43.6189 26.9733 45.7522 26.68L50.9522 25.96C51.7255 25.8533 52.2855 25.6 52.6322 25.2C52.9789 24.7733 53.1522 24.1733 53.1522 23.4V23.08C53.1522 21.8 52.6455 20.7733 51.6322 20C50.6455 19.2 49.4055 18.8 47.9122 18.8C46.7389 18.8 45.7122 19.04 44.8322 19.52C43.9789 19.9733 43.2989 20.6133 42.7922 21.44C42.5789 21.7867 42.3122 21.96 41.9922 21.96C41.8322 21.96 41.6589 21.8933 41.4722 21.76L40.3922 21.04C40.1522 20.8267 40.0322 20.6 40.0322 20.36C40.0322 20.2533 40.0722 20.12 40.1522 19.96C40.9255 18.68 41.9789 17.68 43.3122 16.96C44.6722 16.2133 46.2322 15.84 47.9922 15.84C49.5922 15.84 51.0189 16.1467 52.2722 16.76C53.5255 17.3467 54.4855 18.1867 55.1522 19.28C55.8455 20.3733 56.1922 21.64 56.1922 23.08V38.44C56.1922 38.6 56.1389 38.7333 56.0322 38.84C55.9255 38.9467 55.7922 39 55.6322 39H53.9522C53.7922 39 53.6589 38.9467 53.5522 38.84C53.4455 38.7333 53.3922 38.6 53.3922 38.44V35.68C52.5655 36.88 51.4989 37.8267 50.1922 38.52C48.9122 39.1867 47.5122 39.52 45.9922 39.52ZM46.3122 36.72C47.6189 36.72 48.8055 36.3733 49.8722 35.68C50.9389 34.9867 51.7655 34.12 52.3522 33.08C52.9655 32.0133 53.2722 30.9733 53.2722 29.96V28.32C52.6322 28.4 50.5789 28.68 47.1122 29.16L45.9922 29.32C43.3255 29.72 41.9922 30.9733 41.9922 33.08C41.9922 34.1733 42.3922 35.0533 43.1922 35.72C43.9922 36.3867 45.0322 36.72 46.3122 36.72ZM63.535 38.96C63.375 38.96 63.2417 38.9067 63.135 38.8C63.0283 38.6933 62.975 38.56 62.975 38.4V16.92C62.975 16.76 63.0283 16.6267 63.135 16.52C63.2417 16.4133 63.375 16.36 63.535 16.36H65.535C65.695 16.36 65.8283 16.4133 65.935 16.52C66.0417 16.6267 66.095 16.76 66.095 16.92V19.12C66.7883 18.0267 67.6817 17.2 68.775 16.64C69.895 16.08 71.1483 15.8 72.535 15.8C74.8017 15.8 76.6283 16.4933 78.015 17.88C79.4283 19.2667 80.135 21.0933 80.135 23.36V38.4C80.135 38.56 80.0817 38.6933 79.975 38.8C79.8683 38.9067 79.735 38.96 79.575 38.96H77.575C77.415 38.96 77.2817 38.9067 77.175 38.8C77.0683 38.6933 77.015 38.56 77.015 38.4V23.96C77.015 22.2533 76.5617 20.96 75.655 20.08C74.775 19.1733 73.575 18.72 72.055 18.72C70.2683 18.72 68.8283 19.3067 67.735 20.48C66.6417 21.6533 66.095 23.2667 66.095 25.32V38.4C66.095 38.56 66.0417 38.6933 65.935 38.8C65.8283 38.9067 65.695 38.96 65.535 38.96H63.535ZM90.245 13.24C90.085 13.24 89.9517 13.1867 89.845 13.08C89.7383 12.9733 89.685 12.84 89.685 12.68V9.2C89.685 9.04 89.7383 8.90666 89.845 8.8C89.9517 8.69333 90.085 8.64 90.245 8.64H92.165C92.325 8.64 92.4583 8.69333 92.565 8.8C92.6717 8.90666 92.725 9.04 92.725 9.2V12.68C92.725 12.84 92.6717 12.9733 92.565 13.08C92.4583 13.1867 92.325 13.24 92.165 13.24H90.245ZM91.085 39C90.685 39 90.3383 38.8667 90.045 38.6C89.7783 38.3067 89.645 37.96 89.645 37.56V19.32H85.485C85.325 19.32 85.1917 19.2667 85.085 19.16C84.9783 19.0533 84.925 18.92 84.925 18.76V16.92C84.925 16.76 84.9783 16.6267 85.085 16.52C85.1917 16.4133 85.325 16.36 85.485 16.36H91.325C91.725 16.36 92.0583 16.5067 92.325 16.8C92.6183 17.0667 92.765 17.4 92.765 17.8V36.04H96.885C97.045 36.04 97.1783 36.0933 97.285 36.2C97.3917 36.3067 97.445 36.44 97.445 36.6V38.44C97.445 38.6 97.3917 38.7333 97.285 38.84C97.1783 38.9467 97.045 39 96.885 39H91.085ZM108.023 39.52C105.97 39.52 104.29 38.9467 102.983 37.8C101.677 36.6267 101.023 35.0933 101.023 33.2C101.023 31.44 101.61 29.9867 102.783 28.84C103.983 27.6933 105.65 26.9733 107.783 26.68L112.983 25.96C113.757 25.8533 114.317 25.6 114.663 25.2C115.01 24.7733 115.183 24.1733 115.183 23.4V23.08C115.183 21.8 114.677 20.7733 113.663 20C112.677 19.2 111.437 18.8 109.943 18.8C108.77 18.8 107.743 19.04 106.863 19.52C106.01 19.9733 105.33 20.6133 104.823 21.44C104.61 21.7867 104.343 21.96 104.023 21.96C103.863 21.96 103.69 21.8933 103.503 21.76L102.423 21.04C102.183 20.8267 102.063 20.6 102.063 20.36C102.063 20.2533 102.103 20.12 102.183 19.96C102.957 18.68 104.01 17.68 105.343 16.96C106.703 16.2133 108.263 15.84 110.023 15.84C111.623 15.84 113.05 16.1467 114.303 16.76C115.557 17.3467 116.517 18.1867 117.183 19.28C117.877 20.3733 118.223 21.64 118.223 23.08V38.44C118.223 38.6 118.17 38.7333 118.063 38.84C117.957 38.9467 117.823 39 117.663 39H115.983C115.823 39 115.69 38.9467 115.583 38.84C115.477 38.7333 115.423 38.6 115.423 38.44V35.68C114.597 36.88 113.53 37.8267 112.223 38.52C110.943 39.1867 109.543 39.52 108.023 39.52ZM108.343 36.72C109.65 36.72 110.837 36.3733 111.903 35.68C112.97 34.9867 113.797 34.12 114.383 33.08C114.997 32.0133 115.303 30.9733 115.303 29.96V28.32C114.663 28.4 112.61 28.68 109.143 29.16L108.023 29.32C105.357 29.72 104.023 30.9733 104.023 33.08C104.023 34.1733 104.423 35.0533 105.223 35.72C106.023 36.3867 107.063 36.72 108.343 36.72Z" fill="#1A2767"/>
<path d="M74.288 52.156C73.832 52.156 73.412 52.044 73.028 51.82C72.644 51.596 72.34 51.292 72.116 50.908C71.892 50.524 71.78 50.104 71.78 49.648V47.56C71.78 47.104 71.892 46.684 72.116 46.3C72.34 45.916 72.644 45.612 73.028 45.388C73.42 45.164 73.844 45.052 74.3 45.052C74.628 45.052 74.944 45.112 75.248 45.232C75.56 45.352 75.832 45.52 76.064 45.736V43.06C76.064 43.012 76.08 42.972 76.112 42.94C76.144 42.908 76.184 42.892 76.232 42.892H76.832C76.88 42.892 76.92 42.908 76.952 42.94C76.984 42.972 77 43.012 77 43.06V51.832C77 51.88 76.984 51.92 76.952 51.952C76.92 51.984 76.88 52 76.832 52H76.28C76.232 52 76.192 51.984 76.16 51.952C76.128 51.92 76.112 51.88 76.112 51.832V51.304C75.888 51.576 75.616 51.788 75.296 51.94C74.984 52.084 74.648 52.156 74.288 52.156ZM74.384 51.268C74.688 51.268 74.968 51.196 75.224 51.052C75.488 50.9 75.692 50.696 75.836 50.44C75.988 50.184 76.064 49.904 76.064 49.6V47.608C76.064 47.304 75.988 47.024 75.836 46.768C75.692 46.512 75.488 46.312 75.224 46.168C74.968 46.016 74.688 45.94 74.384 45.94C74.08 45.94 73.8 46.016 73.544 46.168C73.288 46.312 73.084 46.512 72.932 46.768C72.788 47.024 72.716 47.304 72.716 47.608V49.6C72.716 49.904 72.788 50.184 72.932 50.44C73.084 50.696 73.288 50.9 73.544 51.052C73.8 51.196 74.08 51.268 74.384 51.268ZM81.5207 52C81.0487 52 80.6127 51.884 80.2127 51.652C79.8127 51.42 79.4967 51.104 79.2647 50.704C79.0327 50.296 78.9167 49.856 78.9167 49.384V47.668C78.9167 47.196 79.0327 46.76 79.2647 46.36C79.4967 45.952 79.8127 45.632 80.2127 45.4C80.6127 45.168 81.0487 45.052 81.5207 45.052C81.9927 45.052 82.4287 45.168 82.8287 45.4C83.2287 45.632 83.5447 45.952 83.7767 46.36C84.0087 46.76 84.1247 47.196 84.1247 47.668V48.484C84.1247 48.604 84.0807 48.708 83.9927 48.796C83.9127 48.876 83.8127 48.916 83.6927 48.916H79.8527V49.444C79.8527 49.748 79.9247 50.028 80.0687 50.284C80.2207 50.54 80.4247 50.744 80.6807 50.896C80.9367 51.04 81.2167 51.112 81.5207 51.112H83.2607C83.3087 51.112 83.3487 51.128 83.3807 51.16C83.4127 51.192 83.4287 51.232 83.4287 51.28V51.832C83.4287 51.88 83.4127 51.92 83.3807 51.952C83.3487 51.984 83.3087 52 83.2607 52H81.5207ZM83.1887 48.052V47.608C83.1887 47.304 83.1127 47.024 82.9607 46.768C82.8167 46.512 82.6167 46.312 82.3607 46.168C82.1047 46.016 81.8247 45.94 81.5207 45.94C81.2167 45.94 80.9367 46.016 80.6807 46.168C80.4247 46.312 80.2207 46.512 80.0687 46.768C79.9247 47.024 79.8527 47.304 79.8527 47.608V48.052H83.1887ZM89.2988 52C89.2508 52 89.2108 51.984 89.1788 51.952C89.1468 51.92 89.1308 51.88 89.1308 51.832V45.376C89.1308 45.328 89.1468 45.288 89.1788 45.256C89.2108 45.224 89.2508 45.208 89.2988 45.208H89.8988C89.9468 45.208 89.9868 45.224 90.0188 45.256C90.0508 45.288 90.0668 45.328 90.0668 45.376V46.024C90.2588 45.704 90.5108 45.464 90.8228 45.304C91.1428 45.136 91.4948 45.052 91.8788 45.052C92.3828 45.052 92.8188 45.172 93.1868 45.412C93.5628 45.644 93.8308 45.964 93.9908 46.372C94.1588 45.948 94.4188 45.624 94.7708 45.4C95.1228 45.176 95.5228 45.064 95.9708 45.064C96.6508 45.064 97.1988 45.272 97.6148 45.688C98.0388 46.104 98.2508 46.652 98.2508 47.332V51.832C98.2508 51.88 98.2348 51.92 98.2028 51.952C98.1708 51.984 98.1308 52 98.0828 52H97.4828C97.4348 52 97.3948 51.984 97.3628 51.952C97.3308 51.92 97.3148 51.88 97.3148 51.832V47.512C97.3148 47 97.1788 46.612 96.9068 46.348C96.6428 46.076 96.2828 45.94 95.8268 45.94C95.3308 45.94 94.9268 46.116 94.6148 46.468C94.3108 46.82 94.1588 47.304 94.1588 47.92V51.832C94.1588 51.88 94.1428 51.92 94.1108 51.952C94.0788 51.984 94.0388 52 93.9908 52H93.3908C93.3428 52 93.3028 51.984 93.2708 51.952C93.2388 51.92 93.2228 51.88 93.2228 51.832V47.5C93.2228 46.988 93.0868 46.6 92.8148 46.336C92.5508 46.064 92.1908 45.928 91.7348 45.928C91.2388 45.928 90.8348 46.104 90.5228 46.456C90.2188 46.808 90.0668 47.292 90.0668 47.908V51.832C90.0668 51.88 90.0508 51.92 90.0188 51.952C89.9868 51.984 89.9468 52 89.8988 52H89.2988ZM102.591 52.156C102.119 52.156 101.683 52.04 101.283 51.808C100.883 51.576 100.567 51.26 100.335 50.86C100.103 50.452 99.987 50.012 99.987 49.54V47.668C99.987 47.196 100.103 46.76 100.335 46.36C100.567 45.952 100.883 45.632 101.283 45.4C101.683 45.168 102.119 45.052 102.591 45.052C103.063 45.052 103.499 45.168 103.899 45.4C104.299 45.632 104.615 45.952 104.847 46.36C105.079 46.76 105.195 47.196 105.195 47.668V49.54C105.195 50.012 105.079 50.452 104.847 50.86C104.615 51.26 104.299 51.576 103.899 51.808C103.499 52.04 103.063 52.156 102.591 52.156ZM102.591 51.268C102.895 51.268 103.175 51.196 103.431 51.052C103.687 50.9 103.887 50.696 104.031 50.44C104.183 50.184 104.259 49.904 104.259 49.6V47.608C104.259 47.304 104.183 47.024 104.031 46.768C103.887 46.512 103.687 46.312 103.431 46.168C103.175 46.016 102.895 45.94 102.591 45.94C102.287 45.94 102.007 46.016 101.751 46.168C101.495 46.312 101.291 46.512 101.139 46.768C100.995 47.024 100.923 47.304 100.923 47.608V49.6C100.923 49.904 100.995 50.184 101.139 50.44C101.291 50.696 101.495 50.9 101.751 51.052C102.007 51.196 102.287 51.268 102.591 51.268ZM109.327 52.156C108.871 52.156 108.451 52.044 108.067 51.82C107.683 51.596 107.379 51.292 107.155 50.908C106.931 50.524 106.819 50.104 106.819 49.648V47.56C106.819 47.104 106.931 46.684 107.155 46.3C107.379 45.916 107.683 45.612 108.067 45.388C108.459 45.164 108.883 45.052 109.339 45.052C109.667 45.052 109.983 45.112 110.287 45.232C110.599 45.352 110.871 45.52 111.103 45.736V43.06C111.103 43.012 111.119 42.972 111.151 42.94C111.183 42.908 111.223 42.892 111.271 42.892H111.871C111.919 42.892 111.959 42.908 111.991 42.94C112.023 42.972 112.039 43.012 112.039 43.06V51.832C112.039 51.88 112.023 51.92 111.991 51.952C111.959 51.984 111.919 52 111.871 52H111.319C111.271 52 111.231 51.984 111.199 51.952C111.167 51.92 111.151 51.88 111.151 51.832V51.304C110.927 51.576 110.655 51.788 110.335 51.94C110.023 52.084 109.687 52.156 109.327 52.156ZM109.423 51.268C109.727 51.268 110.007 51.196 110.263 51.052C110.527 50.9 110.731 50.696 110.875 50.44C111.027 50.184 111.103 49.904 111.103 49.6V47.608C111.103 47.304 111.027 47.024 110.875 46.768C110.731 46.512 110.527 46.312 110.263 46.168C110.007 46.016 109.727 45.94 109.423 45.94C109.119 45.94 108.839 46.016 108.583 46.168C108.327 46.312 108.123 46.512 107.971 46.768C107.827 47.024 107.755 47.304 107.755 47.608V49.6C107.755 49.904 107.827 50.184 107.971 50.44C108.123 50.696 108.327 50.9 108.583 51.052C108.839 51.196 109.119 51.268 109.423 51.268ZM115.817 52.156C115.201 52.156 114.697 51.984 114.305 51.64C113.913 51.288 113.717 50.828 113.717 50.26C113.717 49.732 113.893 49.296 114.245 48.952C114.605 48.608 115.105 48.392 115.745 48.304L117.305 48.088C117.537 48.056 117.705 47.98 117.809 47.86C117.913 47.732 117.965 47.552 117.965 47.32V47.224C117.965 46.84 117.813 46.532 117.509 46.3C117.213 46.06 116.841 45.94 116.393 45.94C116.041 45.94 115.733 46.012 115.469 46.156C115.213 46.292 115.009 46.484 114.857 46.732C114.793 46.836 114.713 46.888 114.617 46.888C114.569 46.888 114.517 46.868 114.461 46.828L114.137 46.612C114.065 46.548 114.029 46.48 114.029 46.408C114.029 46.376 114.041 46.336 114.065 46.288C114.297 45.904 114.613 45.604 115.013 45.388C115.421 45.164 115.889 45.052 116.417 45.052C116.897 45.052 117.325 45.144 117.701 45.328C118.077 45.504 118.365 45.756 118.565 46.084C118.773 46.412 118.877 46.792 118.877 47.224V51.832C118.877 51.88 118.861 51.92 118.829 51.952C118.797 51.984 118.757 52 118.709 52H118.205C118.157 52 118.117 51.984 118.085 51.952C118.053 51.92 118.037 51.88 118.037 51.832V51.004C117.789 51.364 117.469 51.648 117.077 51.856C116.693 52.056 116.273 52.156 115.817 52.156ZM115.913 51.316C116.305 51.316 116.661 51.212 116.981 51.004C117.301 50.796 117.549 50.536 117.725 50.224C117.909 49.904 118.001 49.592 118.001 49.288V48.796C117.809 48.82 117.193 48.904 116.153 49.048L115.817 49.096C115.017 49.216 114.617 49.592 114.617 50.224C114.617 50.552 114.737 50.816 114.977 51.016C115.217 51.216 115.529 51.316 115.913 51.316Z" fill="#1A2767"/>
<line x1="5.5" y1="50.5" x2="66.5" y2="50.5" stroke="#1A2767" stroke-width="3" stroke-linecap="round"/>
<circle cx="92" cy="11" r="4" fill="#D29101"/>
</svg>
